<svg width="20" height="20" viewBox="0 0 20 20" fill="none" xmlns="http://www.w3.org/2000/svg">
<g id="discord" clip-path="url(#clip0_11509_18397)">
<g id="Group">
<g id="Group_2">
<path id="Vector" d="M16.9279 3.26761C15.6603 2.67606 14.28 2.25352 12.8434 2C12.8152 2 12.7871 2 12.7871 2.02817C12.618 2.33803 12.4209 2.76056 12.28 3.07042C10.7307 2.84507 9.2096 2.84507 7.71664 3.07042C7.5758 2.73239 7.37861 2.33803 7.2096 2.02817C7.2096 2 7.18143 2 7.15326 2C5.71664 2.25352 4.36453 2.67606 3.06875 3.26761C3.06875 3.26761 3.04059 3.26761 3.04059 3.29577C0.449038 7.15493 -0.255188 10.9296 0.0828404 14.6761C0.0828404 14.7042 0.0828404 14.7042 0.111009 14.7324C1.82932 16 3.49129 16.7606 5.09692 17.2676C5.12509 17.2676 5.15326 17.2676 5.15326 17.2394C5.54763 16.7042 5.88566 16.169 6.16735 15.5775C6.19552 15.5493 6.16735 15.493 6.13918 15.493C5.60397 15.2958 5.06875 15.0423 4.58988 14.7606C4.56171 14.7324 4.53354 14.6761 4.58988 14.6479C4.70256 14.5634 4.78706 14.4789 4.89974 14.3944C4.92791 14.3662 4.95608 14.3662 4.95608 14.3944C8.22368 15.8873 11.773 15.8873 15.0124 14.3944C15.0406 14.3944 15.0688 14.3944 15.0688 14.3944C15.1814 14.4789 15.2659 14.5634 15.3786 14.6479C15.4068 14.6761 15.4068 14.7324 15.3786 14.7606C14.8716 15.0423 14.3645 15.2958 13.8293 15.493C13.8011 15.493 13.773 15.5493 13.8011 15.5775C14.111 16.169 14.449 16.7042 14.8152 17.2394C14.8434 17.2676 14.8716 17.2676 14.8716 17.2676C16.5054 16.7606 18.1673 16 19.8857 14.7324C19.9138 14.7324 19.9138 14.7042 19.9138 14.6761C20.3364 10.3662 19.2096 6.61972 16.9279 3.26761ZM6.67439 12.3944C5.68847 12.3944 4.87157 11.493 4.87157 10.3662C4.87157 9.23944 5.6603 8.33803 6.67439 8.33803C7.68847 8.33803 8.4772 9.23944 8.4772 10.3662C8.4772 11.493 7.68847 12.3944 6.67439 12.3944ZM13.3223 12.3944C12.3364 12.3944 11.5195 11.493 11.5195 10.3662C11.5195 9.23944 12.3082 8.33803 13.3223 8.33803C14.3364 8.33803 15.1251 9.23944 15.1251 10.3662C15.1251 11.493 14.3364 12.3944 13.3223 12.3944Z" fill="black"/>
</g>
</g>
</g>
<defs>
<clipPath id="clip0_11509_18397">
<rect width="20" height="20" fill="white"/>
</clipPath>
</defs>
</svg>
