<svg width="20" height="20" viewBox="0 0 20 20" fill="none" xmlns="http://www.w3.org/2000/svg">
<g id="instagram" clip-path="url(#clip0_11509_18410)">
<g id="Group">
<path id="Exclude" fill-rule="evenodd" clip-rule="evenodd" d="M19.9154 10.0002C19.9154 15.477 15.4755 19.9168 9.9987 19.9168C4.52187 19.9168 0.0820312 15.477 0.0820312 10.0002C0.0820312 4.52334 4.52187 0.0834961 9.9987 0.0834961C15.4755 0.0834961 19.9154 4.52334 19.9154 10.0002ZM7.57183 4.15353C8.1985 4.12353 8.40183 4.11686 9.9985 4.11686C11.5952 4.11686 11.7952 4.12353 12.4218 4.15353C13.0485 4.18353 13.4752 4.28019 13.8518 4.42686C14.2418 4.58019 14.5685 4.78019 14.8952 5.10686C15.2218 5.43353 15.4252 5.76353 15.5752 6.1502C15.7185 6.52353 15.8185 6.9502 15.8485 7.57687C15.8785 8.20687 15.8852 8.40687 15.8852 10.0035C15.8852 11.5696 15.8756 11.7944 15.8502 12.3908L15.8485 12.4302C15.8185 13.0569 15.7185 13.4835 15.5752 13.8569C15.4218 14.2435 15.2218 14.5735 14.8952 14.9002C14.5685 15.2269 14.2418 15.4302 13.8552 15.5802C13.4785 15.7269 13.0518 15.8236 12.4252 15.8536C11.7952 15.8836 11.5952 15.8902 9.9985 15.8902C8.3985 15.8902 8.1985 15.8836 7.57183 15.8536C6.9485 15.8236 6.5185 15.7269 6.14516 15.5802C5.7585 15.4302 5.4285 15.2269 5.10183 14.9002C4.77183 14.5735 4.57183 14.2435 4.42183 13.8569C4.27516 13.4835 4.1785 13.0569 4.1485 12.4302C4.1185 11.8002 4.11183 11.6002 4.11183 10.0035C4.11183 8.43751 4.12141 8.21266 4.14682 7.61623L4.1485 7.57687C4.17516 6.95353 4.27516 6.52353 4.42183 6.1502C4.57516 5.76353 4.77516 5.43353 5.10183 5.10686C5.4285 4.77686 5.7585 4.57686 6.14516 4.42686C6.5185 4.28019 6.94516 4.18353 7.57183 4.15353ZM9.9985 5.17686H9.47183C8.37516 5.17686 8.16516 5.18353 7.62183 5.2102C7.0485 5.23686 6.73516 5.33353 6.5285 5.41353C6.25516 5.5202 6.0585 5.64686 5.85183 5.85353C5.64516 6.0602 5.5185 6.25686 5.41183 6.5302C5.33183 6.7402 5.23516 7.0502 5.2085 7.62353C5.18183 8.24354 5.17516 8.4302 5.17516 10.0002C5.17516 11.5702 5.18183 11.7569 5.2085 12.3769C5.23516 12.9502 5.33183 13.2635 5.41183 13.4702C5.5185 13.7435 5.64516 13.9402 5.85183 14.1469C6.0585 14.3535 6.25516 14.4802 6.5285 14.5869C6.7385 14.6669 7.0485 14.7635 7.62183 14.7902C8.24183 14.8169 8.4285 14.8235 9.9985 14.8235C11.5685 14.8235 11.7552 14.8169 12.3752 14.7902C12.9485 14.7635 13.2618 14.6669 13.4685 14.5869C13.7452 14.4802 13.9385 14.3535 14.1452 14.1469C14.3518 13.9402 14.4785 13.7435 14.5852 13.4702C14.6652 13.2602 14.7618 12.9502 14.7885 12.3769C14.8152 11.7569 14.8218 11.5702 14.8218 10.0002C14.8218 8.4302 14.8152 8.24354 14.7885 7.62353C14.7618 7.0502 14.6652 6.73687 14.5852 6.5302C14.4785 6.25686 14.3518 6.0602 14.1452 5.85353C13.9385 5.64686 13.7418 5.5202 13.4685 5.41353C13.2585 5.33353 12.9485 5.23686 12.3752 5.2102C11.7552 5.18353 11.5685 5.17686 9.9985 5.17686ZM12.4318 6.8602C12.4318 6.4702 12.7485 6.15353 13.1385 6.15353C13.5285 6.15353 13.8452 6.4702 13.8452 6.8602C13.8452 7.2502 13.5285 7.56687 13.1385 7.56687C12.7485 7.56687 12.4318 7.2502 12.4318 6.8602ZM6.9785 10.0002C6.9785 8.33354 8.3285 6.9802 9.9985 6.9802C11.6685 6.9802 13.0185 8.3302 13.0185 10.0002C13.0185 11.6669 11.6685 13.0202 9.9985 13.0202C8.33183 13.0202 6.9785 11.6702 6.9785 10.0002ZM11.9585 10.0002C11.9585 8.91687 11.0818 8.0402 9.9985 8.0402C8.91516 8.0402 8.0385 8.91687 8.0385 10.0002C8.0385 11.0835 8.91516 11.9602 9.9985 11.9602C11.0818 11.9602 11.9585 11.0835 11.9585 10.0002Z" fill="black"/>
</g>
</g>
<defs>
<clipPath id="clip0_11509_18410">
<rect width="20" height="20" fill="white"/>
</clipPath>
</defs>
</svg>
