<svg width="20" height="20" viewBox="0 0 20 20" fill="none" xmlns="http://www.w3.org/2000/svg">
<g id="x" clip-path="url(#clip0_11509_18405)">
<path id="Exclude" fill-rule="evenodd" clip-rule="evenodd" d="M20 10C20 15.5228 15.5228 20 10 20C4.47715 20 0 15.5228 0 10C0 4.47715 4.47715 0 10 0C15.5228 0 20 4.47715 20 10ZM8.62006 10.5977L3.84018 4.20666H7.52414L10.6578 8.3965L14.536 4.20666H15.6186L11.1414 9.04346L16.1903 15.7939H12.5064L9.10393 11.2444L4.89268 15.7939H3.81006L8.62006 10.5977ZM7.12462 5.00403H5.43223L12.9057 14.9965H14.5981L7.12462 5.00403Z" fill="black"/>
</g>
<defs>
<clipPath id="clip0_11509_18405">
<rect width="20" height="20" fill="white"/>
</clipPath>
</defs>
</svg>
